<svg width="18" height="18" viewBox="0 0 18 18" fill="none" xmlns="http://www.w3.org/2000/svg">
<path fill-rule="evenodd" clip-rule="evenodd" d="M6.18506 2.09777C5.01978 1.96753 3.81353 1.96753 2.64825 2.09777C2.3651 2.12942 2.1418 2.35362 2.10995 2.62593C1.9708 3.81571 1.9708 5.01765 2.10995 6.20743C2.1418 6.47973 2.3651 6.70394 2.64825 6.73558C3.81353 6.86582 5.01978 6.86582 6.18506 6.73558C6.46821 6.70394 6.69151 6.47973 6.72336 6.20743C6.86251 5.01765 6.86251 3.8157 6.72336 2.62593C6.69151 2.35362 6.46821 2.12942 6.18506 2.09777ZM2.49552 0.731278C3.76231 0.589696 5.071 0.589696 6.33779 0.731278C7.24606 0.83279 7.98163 1.54778 8.08905 2.4662C8.24061 3.7621 8.24061 5.07125 8.08905 6.36716C7.98163 7.28558 7.24606 8.00056 6.33779 8.10208C5.071 8.24366 3.76231 8.24366 2.49552 8.10208C1.58725 8.00056 0.851678 7.28558 0.74426 6.36716C0.592693 5.07125 0.592693 3.7621 0.74426 2.4662C0.851678 1.54778 1.58725 0.83279 2.49552 0.731278Z" fill="#6D747A"/>
<path fill-rule="evenodd" clip-rule="evenodd" d="M6.18506 11.2644C5.01978 11.1342 3.81353 11.1342 2.64825 11.2644C2.3651 11.2961 2.1418 11.5203 2.10995 11.7926C1.9708 12.9824 1.9708 14.1843 2.10995 15.3741C2.1418 15.6464 2.3651 15.8706 2.64825 15.9023C3.81353 16.0325 5.01978 16.0325 6.18506 15.9023C6.46821 15.8706 6.69151 15.6464 6.72336 15.3741C6.86251 14.1843 6.86251 12.9824 6.72336 11.7926C6.69151 11.5203 6.46821 11.2961 6.18506 11.2644ZM2.49552 9.89795C3.76231 9.75636 5.071 9.75636 6.33779 9.89795C7.24606 9.99946 7.98163 10.7144 8.08905 11.6329C8.24061 12.9288 8.24061 14.2379 8.08905 15.5338C7.98163 16.4522 7.24606 17.1672 6.33779 17.2687C5.071 17.4103 3.76231 17.4103 2.49552 17.2687C1.58725 17.1672 0.851678 16.4522 0.74426 15.5338C0.592693 14.2379 0.592693 12.9288 0.74426 11.6329C0.851678 10.7144 1.58725 9.99946 2.49552 9.89795Z" fill="#6D747A"/>
<path fill-rule="evenodd" clip-rule="evenodd" d="M15.3517 2.09777C14.1864 1.96753 12.9802 1.96753 11.8149 2.09777C11.5318 2.12942 11.3085 2.35362 11.2766 2.62593C11.1375 3.81571 11.1375 5.01765 11.2766 6.20743C11.3085 6.47973 11.5318 6.70394 11.8149 6.73558C12.9802 6.86582 14.1864 6.86582 15.3517 6.73558C15.6349 6.70394 15.8582 6.47973 15.89 6.20743C16.0292 5.01765 16.0292 3.8157 15.89 2.62593C15.8582 2.35362 15.6349 2.12942 15.3517 2.09777ZM11.6622 0.731278C12.929 0.589696 14.2377 0.589696 15.5045 0.731278C16.4127 0.83279 17.1483 1.54778 17.2557 2.4662C17.4073 3.7621 17.4073 5.07125 17.2557 6.36716C17.1483 7.28558 16.4127 8.00056 15.5045 8.10208C14.2377 8.24366 12.929 8.24366 11.6622 8.10208C10.7539 8.00056 10.0183 7.28558 9.91093 6.36716C9.75936 5.07125 9.75936 3.7621 9.91093 2.4662C10.0183 1.54778 10.7539 0.83279 11.6622 0.731278Z" fill="#6D747A"/>
<path fill-rule="evenodd" clip-rule="evenodd" d="M15.3517 11.2644C14.1864 11.1342 12.9802 11.1342 11.8149 11.2644C11.5318 11.2961 11.3085 11.5203 11.2766 11.7926C11.1375 12.9824 11.1375 14.1843 11.2766 15.3741C11.3085 15.6464 11.5318 15.8706 11.8149 15.9023C12.9802 16.0325 14.1864 16.0325 15.3517 15.9023C15.6349 15.8706 15.8582 15.6464 15.89 15.3741C16.0292 14.1843 16.0292 12.9824 15.89 11.7926C15.8582 11.5203 15.6349 11.2961 15.3517 11.2644ZM11.6622 9.89795C12.929 9.75636 14.2377 9.75636 15.5045 9.89795C16.4127 9.99946 17.1483 10.7144 17.2557 11.6329C17.4073 12.9288 17.4073 14.2379 17.2557 15.5338C17.1483 16.4522 16.4127 17.1672 15.5045 17.2687C14.2377 17.4103 12.929 17.4103 11.6622 17.2687C10.7539 17.1672 10.0183 16.4522 9.91093 15.5338C9.75936 14.2379 9.75936 12.9288 9.91093 11.6329C10.0183 10.7144 10.7539 9.99946 11.6622 9.89795Z" fill="#6D747A"/>
</svg>
